<?xml version="1.0" encoding="us-ascii" standalone="no"?><svg xmlns="http://www.w3.org/2000/svg" xmlns:xlink="http://www.w3.org/1999/xlink" contentStyleType="text/css" height="320px" preserveAspectRatio="none" style="width:1328px;height:320px;background:#FFFFFF;" version="1.1" viewBox="0 0 1328 320" width="1328px" zoomAndPan="magnify"><defs/><g><rect fill="#DDDDDD" height="308.6563" style="stroke:#181818;stroke-width:0.5;" width="61" x="475" y="6"/><text fill="#000000" font-family="sans-serif" font-size="13" font-weight="bold" lengthAdjust="spacing" textLength="28" x="491.5" y="18.0669">aRS</text><rect fill="#DDDDDD" height="308.6563" style="stroke:#181818;stroke-width:0.5;" width="242.5" x="538" y="6"/><text fill="#000000" font-family="sans-serif" font-size="13" font-weight="bold" lengthAdjust="spacing" textLength="32" x="643.25" y="18.0669">MSA</text><line style="stroke:#181818;stroke-width:0.5;stroke-dasharray:5.0,5.0;" x1="31" x2="31" y1="56.4297" y2="280.3594"/><line style="stroke:#181818;stroke-width:0.5;stroke-dasharray:5.0,5.0;" x1="505" x2="505" y1="56.4297" y2="280.3594"/><line style="stroke:#181818;stroke-width:0.5;stroke-dasharray:5.0,5.0;" x1="568" x2="568" y1="56.4297" y2="280.3594"/><line style="stroke:#181818;stroke-width:0.5;stroke-dasharray:5.0,5.0;" x1="749.5" x2="749.5" y1="56.4297" y2="280.3594"/><line style="stroke:#181818;stroke-width:0.5;stroke-dasharray:5.0,5.0;" x1="1036" x2="1036" y1="56.4297" y2="280.3594"/><rect fill="#E2E2F0" height="30.2969" rx="2.5" ry="2.5" style="stroke:#181818;stroke-width:0.5;" width="53" x="5" y="25.1328"/><text fill="#000000" font-family="sans-serif" font-size="14" lengthAdjust="spacing" textLength="39" x="12" y="45.1279">aMUA</text><rect fill="#E2E2F0" height="30.2969" rx="2.5" ry="2.5" style="stroke:#181818;stroke-width:0.5;" width="53" x="5" y="279.3594"/><text fill="#000000" font-family="sans-serif" font-size="14" lengthAdjust="spacing" textLength="39" x="12" y="299.3545">aMUA</text><rect fill="#E2E2F0" height="30.2969" rx="2.5" ry="2.5" style="stroke:#181818;stroke-width:0.5;" width="53" x="479" y="25.1328"/><text fill="#000000" font-family="sans-serif" font-size="14" lengthAdjust="spacing" textLength="39" x="486" y="45.1279">aMRS</text><rect fill="#E2E2F0" height="30.2969" rx="2.5" ry="2.5" style="stroke:#181818;stroke-width:0.5;" width="53" x="479" y="279.3594"/><text fill="#000000" font-family="sans-serif" font-size="14" lengthAdjust="spacing" textLength="39" x="486" y="299.3545">aMRS</text><rect fill="#E2E2F0" height="30.2969" rx="2.5" ry="2.5" style="stroke:#181818;stroke-width:0.5;" width="52" x="542" y="25.1328"/><text fill="#000000" font-family="sans-serif" font-size="14" lengthAdjust="spacing" textLength="38" x="549" y="45.1279">aMSA</text><rect fill="#E2E2F0" height="30.2969" rx="2.5" ry="2.5" style="stroke:#181818;stroke-width:0.5;" width="52" x="542" y="279.3594"/><text fill="#000000" font-family="sans-serif" font-size="14" lengthAdjust="spacing" textLength="38" x="549" y="299.3545">aMSA</text><rect fill="#E2E2F0" height="30.2969" rx="2.5" ry="2.5" style="stroke:#181818;stroke-width:0.5;" width="53" x="723.5" y="25.1328"/><text fill="#000000" font-family="sans-serif" font-size="14" lengthAdjust="spacing" textLength="39" x="730.5" y="45.1279">hMSA</text><rect fill="#E2E2F0" height="30.2969" rx="2.5" ry="2.5" style="stroke:#181818;stroke-width:0.5;" width="53" x="723.5" y="279.3594"/><text fill="#000000" font-family="sans-serif" font-size="14" lengthAdjust="spacing" textLength="39" x="730.5" y="299.3545">hMSA</text><rect fill="#E2E2F0" height="30.2969" rx="2.5" ry="2.5" style="stroke:#181818;stroke-width:0.5;" width="44" x="1014" y="25.1328"/><text fill="#000000" font-family="sans-serif" font-size="14" lengthAdjust="spacing" textLength="30" x="1021" y="45.1279">MTA</text><rect fill="#E2E2F0" height="30.2969" rx="2.5" ry="2.5" style="stroke:#181818;stroke-width:0.5;" width="44" x="1014" y="279.3594"/><text fill="#000000" font-family="sans-serif" font-size="14" lengthAdjust="spacing" textLength="30" x="1021" y="299.3545">MTA</text><polygon fill="#181818" points="493.5,83.5625,503.5,87.5625,493.5,91.5625,497.5,87.5625" style="stroke:#181818;stroke-width:1.0;"/><line style="stroke:#181818;stroke-width:1.0;" x1="31.5" x2="499.5" y1="87.5625" y2="87.5625"/><text fill="#000000" font-family="sans-serif" font-size="13" lengthAdjust="spacing" textLength="450" x="38.5" y="82.4966">1 Store mail resources, return placeholder message (local, imap, http)</text><polygon fill="#181818" points="556,112.6953,566,116.6953,556,120.6953,560,116.6953" style="stroke:#181818;stroke-width:1.0;"/><line style="stroke:#181818;stroke-width:1.0;" x1="31.5" x2="562" y1="116.6953" y2="116.6953"/><text fill="#000000" font-family="sans-serif" font-size="13" lengthAdjust="spacing" textLength="284" x="38.5" y="111.6294">2.1 Placeholder message submission (smtp)</text><polygon fill="#181818" points="738,141.8281,748,145.8281,738,149.8281,742,145.8281" style="stroke:#181818;stroke-width:1.0;"/><line style="stroke:#181818;stroke-width:1.0;" x1="568" x2="744" y1="145.8281" y2="145.8281"/><text fill="#000000" font-family="sans-serif" font-size="13" lengthAdjust="spacing" textLength="158" x="575" y="140.7622">2.2 Posting (S) transition</text><polygon fill="#181818" points="1024,170.9609,1034,174.9609,1024,178.9609,1028,174.9609" style="stroke:#181818;stroke-width:1.0;"/><line style="stroke:#181818;stroke-width:1.0;" x1="750" x2="1030" y1="174.9609" y2="174.9609"/><text fill="#000000" font-family="sans-serif" font-size="13" lengthAdjust="spacing" textLength="262" x="757" y="169.895">3.1 Placeholder message transfer (smtp)</text><polygon fill="#181818" points="1310,200.0938,1320,204.0938,1310,208.0938,1314,204.0938" style="stroke:#181818;stroke-width:1.0;"/><line style="stroke:#181818;stroke-width:1.0;" x1="1036" x2="1316" y1="204.0938" y2="204.0938"/><text fill="#000000" font-family="sans-serif" font-size="13" lengthAdjust="spacing" textLength="262" x="1043" y="199.0278">3.2 Placeholder message transfer (smtp)</text><polygon fill="#181818" points="516.5,229.2266,506.5,233.2266,516.5,237.2266,512.5,233.2266" style="stroke:#181818;stroke-width:1.0;"/><line style="stroke:#181818;stroke-width:1.0;" x1="510.5" x2="1321" y1="233.2266" y2="233.2266"/><text fill="#000000" font-family="sans-serif" font-size="13" lengthAdjust="spacing" textLength="335" x="522.5" y="228.1606">a) Mail resources retrieval using an http GET request</text><polygon fill="#181818" points="1310,258.3594,1320,262.3594,1310,266.3594,1314,262.3594" style="stroke:#181818;stroke-width:1.0;"/><line style="stroke:#181818;stroke-width:1.0;stroke-dasharray:2.0,2.0;" x1="505.5" x2="1316" y1="262.3594" y2="262.3594"/><text fill="#000000" font-family="sans-serif" font-size="13" lengthAdjust="spacing" textLength="258" x="512.5" y="257.2935">b) Mail resources retrieval http response</text><!--SRC=[ZLF1RgCm4BtxAqQvX4WXKREtQ5K9YTLk3qWLJezxS8WJB06cjgdQlzyPWmcmxMfp233ptfldcV5-pJ9fhRZ9y8GNAmqaDzauYBANPCC0VqddIcq0lo4IOpINXMeL8Nt2-4JGuTsvLjOgtOngVAOMNtNHMNa1ZCErQmg7M4lw0PVzub-1IWyAjKv6DFOwyNsQ95DPgJTfFiPakhH_BvBEYfWHEdEIBfmGA9TMTwR0Oqk3nI3A-IIOIsUKV1DLy93dP52e2kv4fur4TqISjZpdr98GdRIS4eOI56VhFMFh9CrIUDf1TDLwL-XwmrfXd4AAGCQA9hS2OO5UOB_6VwITzJkcShx2o51qSHe4BNG8xNNGnCZ23qJAvW8esSlYb4WM7tzhyE259wF6TDnBHXaOPSzORCUaz8o6k-1P-2JIYO3CDo1-x0zmX8UX-pLDn0o7jrjyTPrfeAr48KjTNN2mzR1LKQKBKMr1rQBTGkbSkvceei4Z77OFyFm9rTvlHcJhdiWziGp40pnhwrHpWmZdwsYz5UqRAmSadUO8txweuC9z6FG97J_-zep3Vp5yOxx7H14Ro6PzeROCwznPyYWQtm3u-UE4kTTEMjSBn7tHypyKF14JBLucoVu0]--></g></svg>