<?xml version="1.0" encoding="us-ascii" standalone="no"?><svg xmlns="http://www.w3.org/2000/svg" xmlns:xlink="http://www.w3.org/1999/xlink" contentStyleType="text/css" height="335px" preserveAspectRatio="none" style="width:1498px;height:335px;background:#FFFFFF;" version="1.1" viewBox="0 0 1498 335" width="1498px" zoomAndPan="magnify"><defs/><g><rect fill="#DDDDDD" height="323.7891" style="stroke:#181818;stroke-width:0.5;" width="248" x="614.5" y="6"/><text fill="#000000" font-family="sans-serif" font-size="13" font-weight="bold" lengthAdjust="spacing" textLength="34" x="721.5" y="18.0669">MDA</text><rect fill="#DDDDDD" height="323.7891" style="stroke:#181818;stroke-width:0.5;" width="71" x="1126" y="6"/><text fill="#000000" font-family="sans-serif" font-size="13" font-weight="bold" lengthAdjust="spacing" textLength="65" x="1129" y="18.0669">rRS, RRA</text><line style="stroke:#181818;stroke-width:0.5;stroke-dasharray:5.0,5.0;" x1="286" x2="286" y1="56.4297" y2="295.4922"/><line style="stroke:#181818;stroke-width:0.5;stroke-dasharray:5.0,5.0;" x1="645.5" x2="645.5" y1="56.4297" y2="295.4922"/><line style="stroke:#181818;stroke-width:0.5;stroke-dasharray:5.0,5.0;" x1="832.5" x2="832.5" y1="56.4297" y2="295.4922"/><line style="stroke:#181818;stroke-width:0.5;stroke-dasharray:5.0,5.0;" x1="1161.5" x2="1161.5" y1="56.4297" y2="295.4922"/><line style="stroke:#181818;stroke-width:0.5;stroke-dasharray:5.0,5.0;" x1="1467" x2="1467" y1="56.4297" y2="295.4922"/><rect fill="#E2E2F0" height="30.2969" rx="2.5" ry="2.5" style="stroke:#181818;stroke-width:0.5;" width="44" x="264" y="25.1328"/><text fill="#000000" font-family="sans-serif" font-size="14" lengthAdjust="spacing" textLength="30" x="271" y="45.1279">MTA</text><rect fill="#E2E2F0" height="30.2969" rx="2.5" ry="2.5" style="stroke:#181818;stroke-width:0.5;" width="44" x="264" y="294.4922"/><text fill="#000000" font-family="sans-serif" font-size="14" lengthAdjust="spacing" textLength="30" x="271" y="314.4873">MTA</text><rect fill="#E2E2F0" height="30.2969" rx="2.5" ry="2.5" style="stroke:#181818;stroke-width:0.5;" width="55" x="618.5" y="25.1328"/><text fill="#000000" font-family="sans-serif" font-size="14" lengthAdjust="spacing" textLength="41" x="625.5" y="45.1279">hMDA</text><rect fill="#E2E2F0" height="30.2969" rx="2.5" ry="2.5" style="stroke:#181818;stroke-width:0.5;" width="55" x="618.5" y="294.4922"/><text fill="#000000" font-family="sans-serif" font-size="14" lengthAdjust="spacing" textLength="41" x="625.5" y="314.4873">hMDA</text><rect fill="#E2E2F0" height="30.2969" rx="2.5" ry="2.5" style="stroke:#181818;stroke-width:0.5;" width="51" x="807.5" y="25.1328"/><text fill="#000000" font-family="sans-serif" font-size="14" lengthAdjust="spacing" textLength="37" x="814.5" y="45.1279">rMDA</text><rect fill="#E2E2F0" height="30.2969" rx="2.5" ry="2.5" style="stroke:#181818;stroke-width:0.5;" width="51" x="807.5" y="294.4922"/><text fill="#000000" font-family="sans-serif" font-size="14" lengthAdjust="spacing" textLength="37" x="814.5" y="314.4873">rMDA</text><rect fill="#E2E2F0" height="30.2969" rx="2.5" ry="2.5" style="stroke:#181818;stroke-width:0.5;" width="50" x="1136.5" y="25.1328"/><text fill="#000000" font-family="sans-serif" font-size="14" lengthAdjust="spacing" textLength="36" x="1143.5" y="45.1279">rMRS</text><rect fill="#E2E2F0" height="30.2969" rx="2.5" ry="2.5" style="stroke:#181818;stroke-width:0.5;" width="50" x="1136.5" y="294.4922"/><text fill="#000000" font-family="sans-serif" font-size="14" lengthAdjust="spacing" textLength="36" x="1143.5" y="314.4873">rMRS</text><rect fill="#E2E2F0" height="30.2969" rx="2.5" ry="2.5" style="stroke:#181818;stroke-width:0.5;" width="50" x="1442" y="25.1328"/><text fill="#000000" font-family="sans-serif" font-size="14" lengthAdjust="spacing" textLength="36" x="1449" y="45.1279">rMUA</text><rect fill="#E2E2F0" height="30.2969" rx="2.5" ry="2.5" style="stroke:#181818;stroke-width:0.5;" width="50" x="1442" y="294.4922"/><text fill="#000000" font-family="sans-serif" font-size="14" lengthAdjust="spacing" textLength="36" x="1449" y="314.4873">rMUA</text><polygon fill="#181818" points="274,83.5625,284,87.5625,274,91.5625,278,87.5625" style="stroke:#181818;stroke-width:1.0;"/><line style="stroke:#181818;stroke-width:1.0;" x1="0" x2="280" y1="87.5625" y2="87.5625"/><text fill="#000000" font-family="sans-serif" font-size="13" lengthAdjust="spacing" textLength="262" x="7" y="82.4966">3.2 Placeholder message transfer (smtp)</text><polygon fill="#181818" points="634,112.6953,644,116.6953,634,120.6953,638,116.6953" style="stroke:#181818;stroke-width:1.0;"/><line style="stroke:#181818;stroke-width:1.0;" x1="286" x2="640" y1="116.6953" y2="116.6953"/><text fill="#000000" font-family="sans-serif" font-size="13" lengthAdjust="spacing" textLength="336" x="293" y="111.6294">3.3 Placeholder message transfer (local, smtp, lmtp)</text><polygon fill="#181818" points="821,141.8281,831,145.8281,821,149.8281,825,145.8281" style="stroke:#181818;stroke-width:1.0;"/><line style="stroke:#181818;stroke-width:1.0;" x1="646" x2="827" y1="145.8281" y2="145.8281"/><text fill="#000000" font-family="sans-serif" font-size="13" lengthAdjust="spacing" textLength="163" x="653" y="140.7622">4.1 Delivery (D) transition</text><polygon fill="#181818" points="1149.5,170.9609,1159.5,174.9609,1149.5,178.9609,1153.5,174.9609" style="stroke:#181818;stroke-width:1.0;"/><line style="stroke:#181818;stroke-width:1.0;" x1="833" x2="1155.5" y1="174.9609" y2="174.9609"/><text fill="#000000" font-family="sans-serif" font-size="13" lengthAdjust="spacing" textLength="298" x="840" y="169.895">4.2 Placeholder message delivery (local, smtp)</text><polygon fill="#181818" points="11,200.0938,1,204.0938,11,208.0938,7,204.0938" style="stroke:#181818;stroke-width:1.0;"/><line style="stroke:#181818;stroke-width:1.0;" x1="5" x2="1160.5" y1="204.0938" y2="204.0938"/><text fill="#000000" font-family="sans-serif" font-size="13" lengthAdjust="spacing" textLength="335" x="17" y="199.0278">a) Mail resources retrieval using an http GET request</text><polygon fill="#181818" points="1149.5,229.2266,1159.5,233.2266,1149.5,237.2266,1153.5,233.2266" style="stroke:#181818;stroke-width:1.0;"/><line style="stroke:#181818;stroke-width:1.0;stroke-dasharray:2.0,2.0;" x1="0" x2="1155.5" y1="233.2266" y2="233.2266"/><text fill="#000000" font-family="sans-serif" font-size="13" lengthAdjust="spacing" textLength="258" x="7" y="228.1606">b) Mail resources retrieval http response</text><polygon fill="#181818" points="1455,273.4922,1465,277.4922,1455,281.4922,1459,277.4922" style="stroke:#181818;stroke-width:1.0;"/><line style="stroke:#181818;stroke-width:1.0;" x1="1161.5" x2="1461" y1="277.4922" y2="277.4922"/><text fill="#000000" font-family="sans-serif" font-size="13" lengthAdjust="spacing" textLength="188" x="1168.5" y="257.2935">5 Fetch placeholder message</text><text fill="#000000" font-family="sans-serif" font-size="13" lengthAdjust="spacing" textLength="271" x="1172.5" y="272.4263">and mail resources (local, pop, imap, http)</text><!--SRC=[XLFBRgCm5Dtp5LVP1AIGgDEPJLLLYiGyka0QcR1gDmuumH9WUcsgcR-VQnCJe8_90eBlUVbWTkiW5Lhpi_1toBL0s9z5Qo1CytqK0FtslQaK0Zr3oCTL9WhPIOjq0tG3hvFrnqPgBLKxgcKpjVYaYbwB4cWTJdrR6C9gg-znwQ_i8r3bGDxhWBpLfqdkmsIOY5g-2lmx3fDb_Aj9CZF14JfBaYoIM10JMlLOqBO5aXc4B8iiyJfWmg0KhxpsEHYp8RciuKes2WKb9FAiTfRPMlpgf7OxmDHxhNT1iDudQGAFZri8ZnotXMgYeEDe974uKLRKpGgu1hh3RarNOXtL7neaDA2LnAxCA9KR4SV-iP1v6qiuUZWEy7Tx9f9eIo3dmHrPjW6gP3KbmABM3NnKvziCBBjae8wcalGyyLwGSXyyT_lCRSpWANvmRTt1xVOB_Avv8IfLb_IMcyiHC_xyXRen7RrLGXF9rMLPj_zXrQhWzGOiUGErat1Sqi11u-lsvdgGmoGQoDAUmG17A6tLGjyFMOxqYLqKE5Ryy4HC7e4xZtWfcOeOM-wrRC_0MwYCwU3dzmFDNdgXpI1m7yTMuVY9WYFIeAFFHdZReUex-0O_X2agwDu6Vsx9jeHchkitqIcgJ3QShjOW2lu1]--></g></svg>